<svg xmlns="http://www.w3.org/2000/svg" xmlns:xlink="http://www.w3.org/1999/xlink" contentStyleType="text/css" data-diagram-type="DESCRIPTION" height="586px" preserveAspectRatio="none" style="width:841px;height:586px;background:#FFFFFF;" version="1.1" viewBox="0 0 841 586" width="841px" zoomAndPan="magnify"><defs/><g><!--cluster Cloud privat CJT--><g class="cluster" data-entity="Cloud privat CJT" data-source-line="12" data-uid="ent0008" id="cluster_Cloud privat CJT"><path d="M51.4792,143.4593 C66.3879,123.5052 85.5333,119.2658 100.5836,143.301 C118.7211,115.4282 138.1337,115.1985 158.4691,140.9275 C169.9521,115.8827 194.2256,112.4458 209.6101,136.8963 C223.9048,111.1662 249.769,105.9786 266.693,134.1097 C280.6467,113.8742 296.1617,107.0716 312.8362,131.2852 C332.5086,104.2423 354.2423,98.8495 373.3038,131.8999 C391.7625,105.6391 409.8085,107.8993 426.5364,133.6706 C440.2977,111.646 454.3151,109.6335 471.1504,130.4709 C487.6404,102.2749 517.4611,101.6928 532.2468,132.2434 C550.4258,108.6693 568.7765,113.5006 579.9935,139.015 C595.2199,114.4745 610.4421,109.7436 630.6313,133.849 C651.2939,109.6714 669.378,109.435 685.3583,138.6484 C700.1632,108.3394 724.4973,107.7938 742.2835,135.7349 C760.051,110.5664 785.9155,114.6959 795.4503,143.8 C800.8953,140.1373 804.8941,143.4344 805.0868,149.1799 C831.7325,167.561 834.218,199.1011 800.1398,212.7574 C827.7674,231.8969 834.7909,254.5083 801.1618,274.6592 C833.1426,293.7095 832.3916,314.3521 806.6087,338.3429 C831.8988,362.3526 827.0969,384.6537 798.5198,401.7967 C827.0864,419.5098 828.9236,448.5623 798.9851,466.6949 C824.9942,488.3761 826.4521,523.7826 788.4503,535.69 C790.7977,533.9759 791.9966,534.7106 792.7163,537.3026 C781.3957,563.8721 761.2311,568.1203 741.3257,546.4478 C723.7424,565.8651 701.9313,563.391 689.4129,540.2672 C677.3043,568.1678 654.1164,574.2649 635.2753,546.8572 C616.9074,574.3668 597.9176,574.0035 582.4226,544.2075 C569.8356,571.8931 542.6241,571.6872 525.5837,549.2585 C509.4542,570.3102 495.051,572.9008 479.7464,548.428 C461.2799,577.5617 437.176,573.9466 418.7782,548.3515 C400.3221,576.6664 383.0546,570.9212 365.0835,547.8446 C352.1513,568.085 333.665,569.4582 319.2217,549.5715 C305.3237,574.6254 279.1283,579.0057 264.3243,550.5 C246.0488,573.6512 225.9144,571.6209 209.3984,548.4152 C189.0396,572.8994 172.0988,571.1058 156.4115,543.6496 C142.2577,569.6729 122.8019,566.2378 105.9237,546.6665 C81.1714,570.8136 49.8159,560.5839 40.4503,528.69 C46.4186,528.0539 48.4599,530.4623 47.2286,536.267 C18.689,520.3786 11.7621,489.8192 46.298,473.003 C10.2529,455.2255 15.4632,429.8378 41.5033,407.5148 C9.8011,389.4894 10.1126,357.0038 40.0584,337.7025 C11.6411,318.9691 13.0947,294.3272 38.399,274.1902 C12.2697,255.5098 10.3156,225.523 43.534,211.7211 C6,188.1194 6.1449,156.2807 47.4503,136.8 C51.6529,136.9719 53.222,139.6902 51.4792,143.4593" fill="none" style="stroke:#181818;stroke-width:1;"/><text fill="#000000" font-family="sans-serif" font-size="14" font-weight="bold" lengthAdjust="spacing" textLength="126.4512" x="354.7247" y="154.7951">Cloud privat CJT</text></g><!--cluster Primaria Dumbravita--><g class="cluster" data-entity="Primaria Dumbravita" data-source-line="14" data-uid="ent0009" id="cluster_Primaria Dumbravita"><polygon fill="none" points="56.4503,181.8,66.4503,171.8,296.4503,171.8,296.4503,509.69,286.4503,519.69,56.4503,519.69,56.4503,181.8" style="stroke:#181818;stroke-width:1;"/><line style="stroke:#181818;stroke-width:1;" x1="286.4503" x2="296.4503" y1="181.8" y2="171.8"/><line style="stroke:#181818;stroke-width:1;" x1="56.4503" x2="286.4503" y1="181.8" y2="181.8"/><line style="stroke:#181818;stroke-width:1;" x1="286.4503" x2="286.4503" y1="181.8" y2="519.69"/><text fill="#000000" font-family="sans-serif" font-size="14" font-weight="bold" lengthAdjust="spacing" textLength="164.6367" x="90.1319" y="197.7951">Primaria Dumbravita</text></g><!--cluster Primaria Giarmata--><g class="cluster" data-entity="Primaria Giarmata" data-source-line="23" data-uid="ent0015" id="cluster_Primaria Giarmata"><polygon fill="none" points="320.4503,181.8,330.4503,171.8,540.4503,171.8,540.4503,509.69,530.4503,519.69,320.4503,519.69,320.4503,181.8" style="stroke:#181818;stroke-width:1;"/><line style="stroke:#181818;stroke-width:1;" x1="530.4503" x2="540.4503" y1="181.8" y2="171.8"/><line style="stroke:#181818;stroke-width:1;" x1="320.4503" x2="530.4503" y1="181.8" y2="181.8"/><line style="stroke:#181818;stroke-width:1;" x1="530.4503" x2="530.4503" y1="181.8" y2="519.69"/><text fill="#000000" font-family="sans-serif" font-size="14" font-weight="bold" lengthAdjust="spacing" textLength="144.8398" x="354.0304" y="197.7951">Primaria Giarmata</text></g><!--cluster Primaria Nadragu--><g class="cluster" data-entity="Primaria Nadragu" data-source-line="32" data-uid="ent0021" id="cluster_Primaria Nadragu"><polygon fill="none" points="564.4503,181.8,574.4503,171.8,779.4503,171.8,779.4503,509.69,769.4503,519.69,564.4503,519.69,564.4503,181.8" style="stroke:#181818;stroke-width:1;"/><line style="stroke:#181818;stroke-width:1;" x1="769.4503" x2="779.4503" y1="181.8" y2="171.8"/><line style="stroke:#181818;stroke-width:1;" x1="564.4503" x2="769.4503" y1="181.8" y2="181.8"/><line style="stroke:#181818;stroke-width:1;" x1="769.4503" x2="769.4503" y1="181.8" y2="519.69"/><text fill="#000000" font-family="sans-serif" font-size="14" font-weight="bold" lengthAdjust="spacing" textLength="139.5488" x="598.1759" y="197.7951">Primaria Nadragu</text></g><!--entity backend_dumbravita--><g class="entity" data-entity="backend_dumbravita" data-source-line="15" data-uid="ent0010" id="entity_backend_dumbravita"><rect fill="#F1F1F1" height="46.2969" rx="2.5" ry="2.5" style="stroke:#181818;stroke-width:0.5;" width="187.5059" x="92.7003" y="335.1"/><rect fill="#F1F1F1" height="10" style="stroke:#181818;stroke-width:0.5;" width="15" x="260.2061" y="340.1"/><rect fill="#F1F1F1" height="2" style="stroke:#181818;stroke-width:0.5;" width="4" x="258.2061" y="342.1"/><rect fill="#F1F1F1" height="2" style="stroke:#181818;stroke-width:0.5;" width="4" x="258.2061" y="346.1"/><text fill="#000000" font-family="sans-serif" font-size="14" lengthAdjust="spacing" textLength="147.5059" x="107.7003" y="368.0951">backend_dumbravita</text></g><!--entity frontend_dumbravita--><g class="entity" data-entity="frontend_dumbravita" data-source-line="16" data-uid="ent0011" id="entity_frontend_dumbravita"><rect fill="#F1F1F1" height="46.2969" rx="2.5" ry="2.5" style="stroke:#181818;stroke-width:0.5;" width="187.8477" x="92.5303" y="211.8"/><rect fill="#F1F1F1" height="10" style="stroke:#181818;stroke-width:0.5;" width="15" x="260.3779" y="216.8"/><rect fill="#F1F1F1" height="2" style="stroke:#181818;stroke-width:0.5;" width="4" x="258.3779" y="218.8"/><rect fill="#F1F1F1" height="2" style="stroke:#181818;stroke-width:0.5;" width="4" x="258.3779" y="222.8"/><text fill="#000000" font-family="sans-serif" font-size="14" lengthAdjust="spacing" textLength="147.8477" x="107.5303" y="244.7951">frontend_dumbravita</text></g><!--entity mongo_dumbravita--><g class="entity" data-entity="mongo_dumbravita" data-source-line="17" data-uid="ent0012" id="entity_mongo_dumbravita"><path d="M108.2503,468.39 C108.2503,458.39 186.4456,458.39 186.4456,458.39 C186.4456,458.39 264.6409,458.39 264.6409,468.39 L264.6409,493.6869 C264.6409,503.6869 186.4456,503.6869 186.4456,503.6869 C186.4456,503.6869 108.2503,503.6869 108.2503,493.6869 L108.2503,468.39" fill="#F1F1F1" style="stroke:#181818;stroke-width:0.5;"/><path d="M108.2503,468.39 C108.2503,478.39 186.4456,478.39 186.4456,478.39 C186.4456,478.39 264.6409,478.39 264.6409,468.39" fill="none" style="stroke:#181818;stroke-width:0.5;"/><text fill="#000000" font-family="sans-serif" font-size="14" lengthAdjust="spacing" textLength="136.3906" x="118.2503" y="495.3851">mongo_dumbravita</text></g><!--entity backend_giarmata--><g class="entity" data-entity="backend_giarmata" data-source-line="24" data-uid="ent0016" id="entity_backend_giarmata"><rect fill="#F1F1F1" height="46.2969" rx="2.5" ry="2.5" style="stroke:#181818;stroke-width:0.5;" width="170.04" x="336.4303" y="335.1"/><rect fill="#F1F1F1" height="10" style="stroke:#181818;stroke-width:0.5;" width="15" x="486.4703" y="340.1"/><rect fill="#F1F1F1" height="2" style="stroke:#181818;stroke-width:0.5;" width="4" x="484.4703" y="342.1"/><rect fill="#F1F1F1" height="2" style="stroke:#181818;stroke-width:0.5;" width="4" x="484.4703" y="346.1"/><text fill="#000000" font-family="sans-serif" font-size="14" lengthAdjust="spacing" textLength="130.04" x="351.4303" y="368.0951">backend_giarmata</text></g><!--entity frontend_giarmata--><g class="entity" data-entity="frontend_giarmata" data-source-line="25" data-uid="ent0017" id="entity_frontend_giarmata"><rect fill="#F1F1F1" height="46.2969" rx="2.5" ry="2.5" style="stroke:#181818;stroke-width:0.5;" width="170.3818" x="336.2603" y="211.8"/><rect fill="#F1F1F1" height="10" style="stroke:#181818;stroke-width:0.5;" width="15" x="486.6421" y="216.8"/><rect fill="#F1F1F1" height="2" style="stroke:#181818;stroke-width:0.5;" width="4" x="484.6421" y="218.8"/><rect fill="#F1F1F1" height="2" style="stroke:#181818;stroke-width:0.5;" width="4" x="484.6421" y="222.8"/><text fill="#000000" font-family="sans-serif" font-size="14" lengthAdjust="spacing" textLength="130.3818" x="351.2603" y="244.7951">frontend_giarmata</text></g><!--entity mongo_giarmata--><g class="entity" data-entity="mongo_giarmata" data-source-line="26" data-uid="ent0018" id="entity_mongo_giarmata"><path d="M351.9903,468.39 C351.9903,458.39 421.4527,458.39 421.4527,458.39 C421.4527,458.39 490.9151,458.39 490.9151,468.39 L490.9151,493.6869 C490.9151,503.6869 421.4527,503.6869 421.4527,503.6869 C421.4527,503.6869 351.9903,503.6869 351.9903,493.6869 L351.9903,468.39" fill="#F1F1F1" style="stroke:#181818;stroke-width:0.5;"/><path d="M351.9903,468.39 C351.9903,478.39 421.4527,478.39 421.4527,478.39 C421.4527,478.39 490.9151,478.39 490.9151,468.39" fill="none" style="stroke:#181818;stroke-width:0.5;"/><text fill="#000000" font-family="sans-serif" font-size="14" lengthAdjust="spacing" textLength="118.9248" x="361.9903" y="495.3851">mongo_giarmata</text></g><!--entity backend_nadragu--><g class="entity" data-entity="backend_nadragu" data-source-line="33" data-uid="ent0022" id="entity_backend_nadragu"><rect fill="#F1F1F1" height="46.2969" rx="2.5" ry="2.5" style="stroke:#181818;stroke-width:0.5;" width="165.0771" x="588.9103" y="335.1"/><rect fill="#F1F1F1" height="10" style="stroke:#181818;stroke-width:0.5;" width="15" x="733.9874" y="340.1"/><rect fill="#F1F1F1" height="2" style="stroke:#181818;stroke-width:0.5;" width="4" x="731.9874" y="342.1"/><rect fill="#F1F1F1" height="2" style="stroke:#181818;stroke-width:0.5;" width="4" x="731.9874" y="346.1"/><text fill="#000000" font-family="sans-serif" font-size="14" lengthAdjust="spacing" textLength="125.0771" x="603.9103" y="368.0951">backend_nadragu</text></g><!--entity frontend_nadragu--><g class="entity" data-entity="frontend_nadragu" data-source-line="34" data-uid="ent0023" id="entity_frontend_nadragu"><rect fill="#F1F1F1" height="46.2969" rx="2.5" ry="2.5" style="stroke:#181818;stroke-width:0.5;" width="165.4189" x="588.7403" y="211.8"/><rect fill="#F1F1F1" height="10" style="stroke:#181818;stroke-width:0.5;" width="15" x="734.1592" y="216.8"/><rect fill="#F1F1F1" height="2" style="stroke:#181818;stroke-width:0.5;" width="4" x="732.1592" y="218.8"/><rect fill="#F1F1F1" height="2" style="stroke:#181818;stroke-width:0.5;" width="4" x="732.1592" y="222.8"/><text fill="#000000" font-family="sans-serif" font-size="14" lengthAdjust="spacing" textLength="125.4189" x="603.7403" y="244.7951">frontend_nadragu</text></g><!--entity mongo_nadragu--><g class="entity" data-entity="mongo_nadragu" data-source-line="35" data-uid="ent0024" id="entity_mongo_nadragu"><path d="M604.4703,468.39 C604.4703,458.39 671.4512,458.39 671.4512,458.39 C671.4512,458.39 738.4322,458.39 738.4322,468.39 L738.4322,493.6869 C738.4322,503.6869 671.4512,503.6869 671.4512,503.6869 C671.4512,503.6869 604.4703,503.6869 604.4703,493.6869 L604.4703,468.39" fill="#F1F1F1" style="stroke:#181818;stroke-width:0.5;"/><path d="M604.4703,468.39 C604.4703,478.39 671.4512,478.39 671.4512,478.39 C671.4512,478.39 738.4322,478.39 738.4322,468.39" fill="none" style="stroke:#181818;stroke-width:0.5;"/><text fill="#000000" font-family="sans-serif" font-size="14" lengthAdjust="spacing" textLength="113.9619" x="614.4703" y="495.3851">mongo_nadragu</text></g><!--entity cetatean--><g class="entity" data-entity="cetatean" data-source-line="1" data-uid="ent0002" id="entity_cetatean"><ellipse cx="175.4471" cy="14" fill="#F1F1F1" rx="8" ry="8" style="stroke:#181818;stroke-width:0.5;"/><path d="M175.4471,22 L175.4471,49 M162.4471,30 L188.4471,30 M175.4471,49 L162.4471,64 M175.4471,49 L188.4471,64" fill="none" style="stroke:#181818;stroke-width:0.5;"/><text fill="#000000" font-family="sans-serif" font-size="14" lengthAdjust="spacing" textLength="61.9336" x="144.4803" y="78.4951">cetatean</text></g><!--entity browser--><g class="entity" data-entity="browser" data-source-line="2" data-uid="ent0003" id="entity_browser"><rect fill="#F1F1F1" height="36.2969" rx="2.5" ry="2.5" style="stroke:#181818;stroke-width:0.5;" width="76.3213" x="241.2903" y="25.5"/><text fill="#000000" font-family="sans-serif" font-size="14" lengthAdjust="spacing" textLength="56.3213" x="251.2903" y="48.4951">browser</text></g><!--entity cet2--><g class="entity" data-entity="cet2" data-source-line="6" data-uid="ent0005" id="entity_cet2"><ellipse cx="556.4512" cy="14" fill="#F1F1F1" rx="8" ry="8" style="stroke:#181818;stroke-width:0.5;"/><path d="M556.4512,22 L556.4512,49 M543.4512,30 L569.4512,30 M556.4512,49 L543.4512,64 M556.4512,49 L569.4512,64" fill="none" style="stroke:#181818;stroke-width:0.5;"/><text fill="#000000" font-family="sans-serif" font-size="14" lengthAdjust="spacing" textLength="84.3418" x="514.2803" y="78.4951">alt cetatean</text></g><!--entity bro2--><g class="entity" data-entity="bro2" data-source-line="8" data-uid="ent0006" id="entity_bro2"><rect fill="#F1F1F1" height="36.2969" rx="2.5" ry="2.5" style="stroke:#181818;stroke-width:0.5;" width="76.3213" x="633.2903" y="25.5"/><text fill="#000000" font-family="sans-serif" font-size="14" lengthAdjust="spacing" textLength="56.3213" x="643.2903" y="48.4951">browser</text></g><!--link cetatean to browser--><g class="link" data-entity-1="cetatean" data-entity-2="browser" data-source-line="4" data-uid="lnk4" id="link_cetatean_browser"><path d="M206.7303,43.65 C218.0903,43.65 223.4603,43.65 234.8203,43.65" fill="none" id="cetatean-to-browser" style="stroke:#181818;stroke-width:1;"/><polygon fill="#181818" points="240.8203,43.65,231.8203,39.65,235.8203,43.65,231.8203,47.65,240.8203,43.65" style="stroke:#181818;stroke-width:1;"/></g><!--link cet2 to bro2--><g class="link" data-entity-1="cet2" data-entity-2="bro2" data-source-line="10" data-uid="lnk7" id="link_cet2_bro2"><path d="M598.6803,43.65 C610.1403,43.65 615.6103,43.65 627.0703,43.65" fill="none" id="cet2-to-bro2" style="stroke:#181818;stroke-width:1;"/><polygon fill="#181818" points="633.0703,43.65,624.0703,39.65,628.0703,43.65,624.0703,47.65,633.0703,43.65" style="stroke:#181818;stroke-width:1;"/></g><!--link frontend_dumbravita to backend_dumbravita--><g class="link" data-entity-1="frontend_dumbravita" data-entity-2="backend_dumbravita" data-source-line="19" data-uid="lnk13" id="link_frontend_dumbravita_backend_dumbravita"><path d="M186.4503,258.48 C186.4503,280.27 186.4503,313.09 186.4503,334.83" fill="none" id="frontend_dumbravita-backend_dumbravita" style="stroke:#181818;stroke-width:1;"/><text fill="#000000" font-family="sans-serif" font-size="13" lengthAdjust="spacing" textLength="48.2168" x="187.4503" y="301.1669">queries</text></g><!--link backend_dumbravita to mongo_dumbravita--><g class="link" data-entity-1="backend_dumbravita" data-entity-2="mongo_dumbravita" data-source-line="20" data-uid="lnk14" id="link_backend_dumbravita_mongo_dumbravita"><path d="M186.4503,381.68 C186.4503,403.52 186.4503,436.48 186.4503,458.13" fill="none" id="backend_dumbravita-mongo_dumbravita" style="stroke:#181818;stroke-width:1;"/><text fill="#000000" font-family="sans-serif" font-size="13" lengthAdjust="spacing" textLength="66.625" x="187.4503" y="424.4569">read/write</text></g><!--link frontend_giarmata to backend_giarmata--><g class="link" data-entity-1="frontend_giarmata" data-entity-2="backend_giarmata" data-source-line="28" data-uid="lnk19" id="link_frontend_giarmata_backend_giarmata"><path d="M421.4503,258.48 C421.4503,280.27 421.4503,313.09 421.4503,334.83" fill="none" id="frontend_giarmata-backend_giarmata" style="stroke:#181818;stroke-width:1;"/><text fill="#000000" font-family="sans-serif" font-size="13" lengthAdjust="spacing" textLength="48.2168" x="422.4503" y="301.1669">queries</text></g><!--link backend_giarmata to mongo_giarmata--><g class="link" data-entity-1="backend_giarmata" data-entity-2="mongo_giarmata" data-source-line="29" data-uid="lnk20" id="link_backend_giarmata_mongo_giarmata"><path d="M421.4503,381.68 C421.4503,403.52 421.4503,436.48 421.4503,458.13" fill="none" id="backend_giarmata-mongo_giarmata" style="stroke:#181818;stroke-width:1;"/><text fill="#000000" font-family="sans-serif" font-size="13" lengthAdjust="spacing" textLength="66.625" x="422.4503" y="424.4569">read/write</text></g><!--link frontend_nadragu to backend_nadragu--><g class="link" data-entity-1="frontend_nadragu" data-entity-2="backend_nadragu" data-source-line="37" data-uid="lnk25" id="link_frontend_nadragu_backend_nadragu"><path d="M671.4503,258.48 C671.4503,280.27 671.4503,313.09 671.4503,334.83" fill="none" id="frontend_nadragu-backend_nadragu" style="stroke:#181818;stroke-width:1;"/><text fill="#000000" font-family="sans-serif" font-size="13" lengthAdjust="spacing" textLength="48.2168" x="672.4503" y="301.1669">queries</text></g><!--link backend_nadragu to mongo_nadragu--><g class="link" data-entity-1="backend_nadragu" data-entity-2="mongo_nadragu" data-source-line="38" data-uid="lnk26" id="link_backend_nadragu_mongo_nadragu"><path d="M671.4503,381.68 C671.4503,403.52 671.4503,436.48 671.4503,458.13" fill="none" id="backend_nadragu-mongo_nadragu" style="stroke:#181818;stroke-width:1;"/><text fill="#000000" font-family="sans-serif" font-size="13" lengthAdjust="spacing" textLength="66.625" x="672.4503" y="424.4569">read/write</text></g><!--link browser to frontend_dumbravita--><g class="link" data-entity-1="browser" data-entity-2="frontend_dumbravita" data-source-line="42" data-uid="lnk27" id="link_browser_frontend_dumbravita"><path d="M270.8703,62.12 C253.9603,96.53 219.0057,167.6847 200.2257,205.9147" fill="none" id="browser-to-frontend_dumbravita" style="stroke:#181818;stroke-width:1;"/><polygon fill="#181818" points="197.5803,211.3,205.1387,204.9857,199.7848,206.8122,197.9583,201.4584,197.5803,211.3" style="stroke:#181818;stroke-width:1;"/></g><!--link browser to frontend_giarmata--><g class="link" data-entity-1="browser" data-entity-2="frontend_giarmata" data-source-line="43" data-uid="lnk28" id="link_browser_frontend_giarmata"><path d="M292.5503,62.12 C318.3703,96.53 372.1797,168.2705 400.8597,206.5005" fill="none" id="browser-to-frontend_giarmata" style="stroke:#181818;stroke-width:1;"/><polygon fill="#181818" points="404.4603,211.3,402.2591,201.7003,401.4598,207.3004,395.8597,206.5011,404.4603,211.3" style="stroke:#181818;stroke-width:1;"/></g><!--link bro2 to frontend_nadragu--><g class="link" data-entity-1="bro2" data-entity-2="frontend_nadragu" data-source-line="45" data-uid="lnk29" id="link_bro2_frontend_nadragu"><path d="M671.4503,62.12 C671.4503,96.53 671.4503,167.07 671.4503,205.3" fill="none" id="bro2-to-frontend_nadragu" style="stroke:#181818;stroke-width:1;"/><polygon fill="#181818" points="671.4503,211.3,675.4503,202.3,671.4503,206.3,667.4503,202.3,671.4503,211.3" style="stroke:#181818;stroke-width:1;"/></g><!--SRC=[ZPEnJiCm48PtFyN9UuIKaO6bI4WCY84TNM8JMTHskLpQ0V7kkC6EazHDyHBbxllleaynjkm9Mit86ft0JZk6XlofroH4gaFra8kO8ZLW3nBtFEMbo1F-kZ4bnrbrd5E7jxqV5CZT-3YGEIB3xlbDmhSG48xpIeDy9MEH3CBZO1l2es4y4v1Ew-t1k_D2sM3xgPrwLvaiSX_a7Ly55J8ss8VLrhlEBw1C5MP0LS7b9y0zV0sQZEvpk425x7fTI996TNSYmteC_nJ5F1aaYxUrT8dRbbB0raeoKX2IcdCTKsr3nZotNFDV4I-e2BlXbWSNiMqDbzJQmaGK9CJUt44gRIYOfHOh2W80H90GhnPKoeThLVWdhn59xJYYNdVZsby0]--></g></svg>