<svg xmlns="http://www.w3.org/2000/svg" xmlns:xlink="http://www.w3.org/1999/xlink" contentStyleType="text/css" data-diagram-type="SEQUENCE" height="515px" preserveAspectRatio="none" style="width:1762px;height:515px;background:#FFFFFF;" version="1.1" viewBox="0 0 1762 515" width="1762px" zoomAndPan="magnify"><defs/><g><g><title>cetatean</title><rect fill="#000000" fill-opacity="0.00000" height="353.5938" width="8" x="34.9668" y="81.2969"/><line style="stroke:#181818;stroke-width:0.5;stroke-dasharray:5.0,5.0;" x1="38" x2="38" y1="81.2969" y2="434.8906"/></g><g><title>browser</title><rect fill="#000000" fill-opacity="0.00000" height="353.5938" width="8" x="188.2432" y="81.2969"/><line style="stroke:#181818;stroke-width:0.5;stroke-dasharray:5.0,5.0;" x1="192.0825" x2="192.0825" y1="81.2969" y2="434.8906"/></g><g><title>responsabil</title><rect fill="#000000" fill-opacity="0.00000" height="353.5938" width="8" x="276.6675" y="81.2969"/><line style="stroke:#181818;stroke-width:0.5;stroke-dasharray:5.0,5.0;" x1="280.4038" x2="280.4038" y1="81.2969" y2="434.8906"/></g><g><title>browser</title><rect fill="#000000" fill-opacity="0.00000" height="353.5938" width="8" x="527.7485" y="81.2969"/><line style="stroke:#181818;stroke-width:0.5;stroke-dasharray:5.0,5.0;" x1="531.5879" x2="531.5879" y1="81.2969" y2="434.8906"/></g><g><title>secretar</title><rect fill="#000000" fill-opacity="0.00000" height="353.5938" width="8" x="604.8081" y="81.2969"/><line style="stroke:#181818;stroke-width:0.5;stroke-dasharray:5.0,5.0;" x1="607.9092" x2="607.9092" y1="81.2969" y2="434.8906"/></g><g><title>browser</title><rect fill="#000000" fill-opacity="0.00000" height="353.5938" width="8" x="797.2622" y="81.2969"/><line style="stroke:#181818;stroke-width:0.5;stroke-dasharray:5.0,5.0;" x1="801.1016" x2="801.1016" y1="81.2969" y2="434.8906"/></g><g><title>primar</title><rect fill="#000000" fill-opacity="0.00000" height="353.5938" width="8" x="868.6753" y="81.2969"/><line style="stroke:#181818;stroke-width:0.5;stroke-dasharray:5.0,5.0;" x1="872.4229" x2="872.4229" y1="81.2969" y2="434.8906"/></g><g><title>browser</title><rect fill="#000000" fill-opacity="0.00000" height="353.5938" width="8" x="1227.7046" y="81.2969"/><line style="stroke:#181818;stroke-width:0.5;stroke-dasharray:5.0,5.0;" x1="1231.5439" x2="1231.5439" y1="81.2969" y2="434.8906"/></g><g><title>frontend</title><rect fill="#000000" fill-opacity="0.00000" height="353.5938" width="8" x="1382.9233" y="81.2969"/><line style="stroke:#181818;stroke-width:0.5;stroke-dasharray:5.0,5.0;" x1="1385.9307" x2="1385.9307" y1="81.2969" y2="434.8906"/></g><g class="participant participant-head" data-participant="cetatean"><text fill="#000000" font-family="sans-serif" font-size="14" lengthAdjust="spacing" textLength="61.9336" x="5" y="77.9951">cetatean</text><ellipse cx="38.9668" cy="13.5" fill="#E2E2F0" rx="8" ry="8" style="stroke:#181818;stroke-width:0.5;"/><path d="M38.9668,21.5 L38.9668,48.5 M25.9668,29.5 L51.9668,29.5 M38.9668,48.5 L25.9668,63.5 M38.9668,48.5 L51.9668,63.5" fill="none" style="stroke:#181818;stroke-width:0.5;"/></g><g class="participant participant-tail" data-participant="cetatean"><text fill="#000000" font-family="sans-serif" font-size="14" lengthAdjust="spacing" textLength="61.9336" x="5" y="446.8857">cetatean</text><ellipse cx="38.9668" cy="458.6875" fill="#E2E2F0" rx="8" ry="8" style="stroke:#181818;stroke-width:0.5;"/><path d="M38.9668,466.6875 L38.9668,493.6875 M25.9668,474.6875 L51.9668,474.6875 M38.9668,493.6875 L25.9668,508.6875 M38.9668,493.6875 L51.9668,508.6875" fill="none" style="stroke:#181818;stroke-width:0.5;"/></g><g class="participant participant-head" data-participant="browserc"><rect fill="#E2E2F0" height="30.2969" rx="2.5" ry="2.5" style="stroke:#181818;stroke-width:0.5;" width="70.3213" x="157.0825" y="50"/><text fill="#000000" font-family="sans-serif" font-size="14" lengthAdjust="spacing" textLength="56.3213" x="164.0825" y="69.9951">browser</text></g><g class="participant participant-tail" data-participant="browserc"><rect fill="#E2E2F0" height="30.2969" rx="2.5" ry="2.5" style="stroke:#181818;stroke-width:0.5;" width="70.3213" x="157.0825" y="433.8906"/><text fill="#000000" font-family="sans-serif" font-size="14" lengthAdjust="spacing" textLength="56.3213" x="164.0825" y="453.8857">browser</text></g><g class="participant participant-head" data-participant="responsabil"><text fill="#000000" font-family="sans-serif" font-size="14" lengthAdjust="spacing" textLength="80.5273" x="237.4038" y="77.9951">responsabil</text><ellipse cx="280.6675" cy="13.5" fill="#E2E2F0" rx="8" ry="8" style="stroke:#181818;stroke-width:0.5;"/><path d="M280.6675,21.5 L280.6675,48.5 M267.6675,29.5 L293.6675,29.5 M280.6675,48.5 L267.6675,63.5 M280.6675,48.5 L293.6675,63.5" fill="none" style="stroke:#181818;stroke-width:0.5;"/></g><g class="participant participant-tail" data-participant="responsabil"><text fill="#000000" font-family="sans-serif" font-size="14" lengthAdjust="spacing" textLength="80.5273" x="237.4038" y="446.8857">responsabil</text><ellipse cx="280.6675" cy="458.6875" fill="#E2E2F0" rx="8" ry="8" style="stroke:#181818;stroke-width:0.5;"/><path d="M280.6675,466.6875 L280.6675,493.6875 M267.6675,474.6875 L293.6675,474.6875 M280.6675,493.6875 L267.6675,508.6875 M280.6675,493.6875 L293.6675,508.6875" fill="none" style="stroke:#181818;stroke-width:0.5;"/></g><g class="participant participant-head" data-participant="browserr"><rect fill="#E2E2F0" height="30.2969" rx="2.5" ry="2.5" style="stroke:#181818;stroke-width:0.5;" width="70.3213" x="496.5879" y="50"/><text fill="#000000" font-family="sans-serif" font-size="14" lengthAdjust="spacing" textLength="56.3213" x="503.5879" y="69.9951">browser</text></g><g class="participant participant-tail" data-participant="browserr"><rect fill="#E2E2F0" height="30.2969" rx="2.5" ry="2.5" style="stroke:#181818;stroke-width:0.5;" width="70.3213" x="496.5879" y="433.8906"/><text fill="#000000" font-family="sans-serif" font-size="14" lengthAdjust="spacing" textLength="56.3213" x="503.5879" y="453.8857">browser</text></g><g class="participant participant-head" data-participant="secretar"><text fill="#000000" font-family="sans-serif" font-size="14" lengthAdjust="spacing" textLength="57.7979" x="576.9092" y="77.9951">secretar</text><ellipse cx="608.8081" cy="13.5" fill="#E2E2F0" rx="8" ry="8" style="stroke:#181818;stroke-width:0.5;"/><path d="M608.8081,21.5 L608.8081,48.5 M595.8081,29.5 L621.8081,29.5 M608.8081,48.5 L595.8081,63.5 M608.8081,48.5 L621.8081,63.5" fill="none" style="stroke:#181818;stroke-width:0.5;"/></g><g class="participant participant-tail" data-participant="secretar"><text fill="#000000" font-family="sans-serif" font-size="14" lengthAdjust="spacing" textLength="57.7979" x="576.9092" y="446.8857">secretar</text><ellipse cx="608.8081" cy="458.6875" fill="#E2E2F0" rx="8" ry="8" style="stroke:#181818;stroke-width:0.5;"/><path d="M608.8081,466.6875 L608.8081,493.6875 M595.8081,474.6875 L621.8081,474.6875 M608.8081,493.6875 L595.8081,508.6875 M608.8081,493.6875 L621.8081,508.6875" fill="none" style="stroke:#181818;stroke-width:0.5;"/></g><g class="participant participant-head" data-participant="browsers"><rect fill="#E2E2F0" height="30.2969" rx="2.5" ry="2.5" style="stroke:#181818;stroke-width:0.5;" width="70.3213" x="766.1016" y="50"/><text fill="#000000" font-family="sans-serif" font-size="14" lengthAdjust="spacing" textLength="56.3213" x="773.1016" y="69.9951">browser</text></g><g class="participant participant-tail" data-participant="browsers"><rect fill="#E2E2F0" height="30.2969" rx="2.5" ry="2.5" style="stroke:#181818;stroke-width:0.5;" width="70.3213" x="766.1016" y="433.8906"/><text fill="#000000" font-family="sans-serif" font-size="14" lengthAdjust="spacing" textLength="56.3213" x="773.1016" y="453.8857">browser</text></g><g class="participant participant-head" data-participant="primar"><text fill="#000000" font-family="sans-serif" font-size="14" lengthAdjust="spacing" textLength="46.5049" x="846.4229" y="77.9951">primar</text><ellipse cx="872.6753" cy="13.5" fill="#E2E2F0" rx="8" ry="8" style="stroke:#181818;stroke-width:0.5;"/><path d="M872.6753,21.5 L872.6753,48.5 M859.6753,29.5 L885.6753,29.5 M872.6753,48.5 L859.6753,63.5 M872.6753,48.5 L885.6753,63.5" fill="none" style="stroke:#181818;stroke-width:0.5;"/></g><g class="participant participant-tail" data-participant="primar"><text fill="#000000" font-family="sans-serif" font-size="14" lengthAdjust="spacing" textLength="46.5049" x="846.4229" y="446.8857">primar</text><ellipse cx="872.6753" cy="458.6875" fill="#E2E2F0" rx="8" ry="8" style="stroke:#181818;stroke-width:0.5;"/><path d="M872.6753,466.6875 L872.6753,493.6875 M859.6753,474.6875 L885.6753,474.6875 M872.6753,493.6875 L859.6753,508.6875 M872.6753,493.6875 L885.6753,508.6875" fill="none" style="stroke:#181818;stroke-width:0.5;"/></g><g class="participant participant-head" data-participant="browserp"><rect fill="#E2E2F0" height="30.2969" rx="2.5" ry="2.5" style="stroke:#181818;stroke-width:0.5;" width="70.3213" x="1196.5439" y="50"/><text fill="#000000" font-family="sans-serif" font-size="14" lengthAdjust="spacing" textLength="56.3213" x="1203.5439" y="69.9951">browser</text></g><g class="participant participant-tail" data-participant="browserp"><rect fill="#E2E2F0" height="30.2969" rx="2.5" ry="2.5" style="stroke:#181818;stroke-width:0.5;" width="70.3213" x="1196.5439" y="433.8906"/><text fill="#000000" font-family="sans-serif" font-size="14" lengthAdjust="spacing" textLength="56.3213" x="1203.5439" y="453.8857">browser</text></g><g class="participant participant-head" data-participant="frontend"><rect fill="#E2E2F0" height="30.2969" rx="2.5" ry="2.5" style="stroke:#181818;stroke-width:0.5;" width="73.9854" x="1349.9307" y="50"/><text fill="#000000" font-family="sans-serif" font-size="14" lengthAdjust="spacing" textLength="59.9854" x="1356.9307" y="69.9951">frontend</text></g><g class="participant participant-tail" data-participant="frontend"><rect fill="#E2E2F0" height="30.2969" rx="2.5" ry="2.5" style="stroke:#181818;stroke-width:0.5;" width="73.9854" x="1349.9307" y="433.8906"/><text fill="#000000" font-family="sans-serif" font-size="14" lengthAdjust="spacing" textLength="59.9854" x="1356.9307" y="453.8857">frontend</text></g><g class="message" data-participant-1="cetatean" data-participant-2="browserc"><polygon fill="#181818" points="180.2432,108.4297,190.2432,112.4297,180.2432,116.4297,184.2432,112.4297" style="stroke:#181818;stroke-width:1;"/><line style="stroke:#181818;stroke-width:1;" x1="38.9668" x2="186.2432" y1="112.4297" y2="112.4297"/><text fill="#000000" font-family="sans-serif" font-size="13" lengthAdjust="spacing" textLength="129.2764" x="45.9668" y="107.3638">completeaza petitie</text></g><g class="message" data-participant-1="browserc" data-participant-2="frontend"><polygon fill="#181818" points="1374.9233,137.5625,1384.9233,141.5625,1374.9233,145.5625,1378.9233,141.5625" style="stroke:#181818;stroke-width:1;"/><line style="stroke:#181818;stroke-width:1;" x1="192.2432" x2="1380.9233" y1="141.5625" y2="141.5625"/><text fill="#000000" font-family="sans-serif" font-size="13" lengthAdjust="spacing" textLength="89.2227" x="199.2432" y="136.4966">trimite petitie</text></g><path d="M1391,154.5625 L1391,194.5625 L1627,194.5625 L1627,164.5625 L1617,154.5625 L1391,154.5625" fill="#FEFFDD" style="stroke:#181818;stroke-width:0.5;"/><path d="M1617,154.5625 L1617,164.5625 L1627,164.5625 L1617,154.5625" fill="#FEFFDD" style="stroke:#181818;stroke-width:0.5;"/><text fill="#000000" font-family="sans-serif" font-size="13" lengthAdjust="spacing" textLength="211.7388" x="1397" y="171.6294">Toti participantii interactioneaza</text><text fill="#000000" font-family="sans-serif" font-size="13" lengthAdjust="spacing" textLength="124.4268" x="1397" y="186.7622">cu acelasi frontend</text><g class="message" data-participant-1="responsabil" data-participant-2="browserr"><polygon fill="#181818" points="519.7485,216.9609,529.7485,220.9609,519.7485,224.9609,523.7485,220.9609" style="stroke:#181818;stroke-width:1;"/><line style="stroke:#181818;stroke-width:1;" x1="280.6675" x2="525.7485" y1="220.9609" y2="220.9609"/><text fill="#000000" font-family="sans-serif" font-size="13" lengthAdjust="spacing" textLength="227.0811" x="287.6675" y="215.895">deschide petitie si adauga raspuns</text></g><g class="message" data-participant-1="browserr" data-participant-2="frontend"><polygon fill="#181818" points="1374.9233,246.0938,1384.9233,250.0938,1374.9233,254.0938,1378.9233,250.0938" style="stroke:#181818;stroke-width:1;"/><line style="stroke:#181818;stroke-width:1;" x1="531.7485" x2="1380.9233" y1="250.0938" y2="250.0938"/><text fill="#000000" font-family="sans-serif" font-size="13" lengthAdjust="spacing" textLength="124.3696" x="538.7485" y="245.0278">salveaza raspunsul</text></g><g class="message" data-participant-1="secretar" data-participant-2="browsers"><polygon fill="#181818" points="789.2622,275.2266,799.2622,279.2266,789.2622,283.2266,793.2622,279.2266" style="stroke:#181818;stroke-width:1;"/><line style="stroke:#181818;stroke-width:1;" x1="608.8081" x2="795.2622" y1="279.2266" y2="279.2266"/><text fill="#000000" font-family="sans-serif" font-size="13" lengthAdjust="spacing" textLength="168.4541" x="615.8081" y="274.1606">deschide petitie si aproba</text></g><g class="message" data-participant-1="browsers" data-participant-2="frontend"><polygon fill="#181818" points="1374.9233,304.3594,1384.9233,308.3594,1374.9233,312.3594,1378.9233,308.3594" style="stroke:#181818;stroke-width:1;"/><line style="stroke:#181818;stroke-width:1;" x1="801.2622" x2="1380.9233" y1="308.3594" y2="308.3594"/><text fill="#000000" font-family="sans-serif" font-size="13" lengthAdjust="spacing" textLength="127.9751" x="808.2622" y="303.2935">salveaza aprobarea</text></g><path d="M1391,321.3594 L1391,361.3594 L1755,361.3594 L1755,331.3594 L1745,321.3594 L1391,321.3594" fill="#FEFFDD" style="stroke:#181818;stroke-width:0.5;"/><path d="M1745,321.3594 L1745,331.3594 L1755,331.3594 L1745,321.3594" fill="#FEFFDD" style="stroke:#181818;stroke-width:0.5;"/><text fill="#000000" font-family="sans-serif" font-size="13" lengthAdjust="spacing" textLength="339.0283" x="1397" y="338.4263">Accesul e controlat prin intermediul configuratiei de</text><text fill="#000000" font-family="sans-serif" font-size="13" lengthAdjust="spacing" textLength="272.0479" x="1397" y="353.5591">roluri, departamente, compartimente etc.</text><g class="message" data-participant-1="primar" data-participant-2="browserp"><polygon fill="#181818" points="1219.7046,383.7578,1229.7046,387.7578,1219.7046,391.7578,1223.7046,387.7578" style="stroke:#181818;stroke-width:1;"/><line style="stroke:#181818;stroke-width:1;" x1="872.6753" x2="1225.7046" y1="387.7578" y2="387.7578"/><text fill="#000000" font-family="sans-serif" font-size="13" lengthAdjust="spacing" textLength="335.0293" x="879.6753" y="382.6919">deschide petitie si semneaza de luare la cunostinta</text></g><g class="message" data-participant-1="browserp" data-participant-2="frontend"><polygon fill="#181818" points="1374.9233,412.8906,1384.9233,416.8906,1374.9233,420.8906,1378.9233,416.8906" style="stroke:#181818;stroke-width:1;"/><line style="stroke:#181818;stroke-width:1;" x1="1231.7046" x2="1380.9233" y1="416.8906" y2="416.8906"/><text fill="#000000" font-family="sans-serif" font-size="13" lengthAdjust="spacing" textLength="131.2188" x="1238.7046" y="411.8247">salveaza semnatura</text></g><!--SRC=[XPB1RSCm34Nlce83f1sWXmBTeGimCfCGa2M1f5gWqvUsOzav6BuOalZ4__bbZ5O48XaQOGuLnJXonMnmbVAh982wBcF06HVIMhBYbTF93NdUK8hY6dA2wnElmkCfNCCBS9EIZV8GmZeDl7rsv_01iOmraHV-42eP6rFePKVN1ewQwxDHntBnZV3zOL1kcz9tCOQT1sPWhuWFmINFGY4sm4W9bJU1C7scdc6NvCwjk8M1D3vuw1x06-20xOuWgBLb3Pr-DQ-OVcRj9zTIMEFVQUYHHfLonT2fWzuB9eH7sNp5I2uDvBbdavBGfcVDIq8Z3Un5BztutWHTdDqE10URyCNNKwuuajEN-UcccESjaCNtBSBbNzbDLWycKngND_7ZrDmx98JOSb5pJttaUZJoT1_DpVu3]--></g></svg>